<svg xmlns="http://www.w3.org/2000/svg" xmlns:xlink="http://www.w3.org/1999/xlink" width="700" height="700" viewBox="0 0 185.208 185.208"><defs><linearGradient id="b"><stop style="stop-color:#6200ea;stop-opacity:1" offset="0"/><stop style="stop-color:#2196f3;stop-opacity:1" offset="1"/></linearGradient><linearGradient xlink:href="#b" id="c" gradientUnits="userSpaceOnUse" x1="0" y1="0" x2="700" y2="700" spreadMethod="pad"/><clipPath clipPathUnits="userSpaceOnUse" id="a"><path style="fill:none;stroke:#000;stroke-width:.30551448px;stroke-linecap:butt;stroke-linejoin:miter;stroke-opacity:1" d="M-31.75 207.042v37.041h21.167v-37.041z"/></clipPath></defs><g style="display:inline"><path style="display:inline;opacity:1;fill:url(#c);fill-opacity:1;fill-rule:evenodd;stroke:#2e2e2e;stroke-width:0;stroke-linecap:round;stroke-linejoin:round;stroke-miterlimit:4.80000019;stroke-dasharray:none;stroke-opacity:1" d="M350 0 0 350l350 350 350-350L350 0zm0 15 335 335-335 335L15 350 350 15z" transform="matrix(.26458 0 0 .26458 0 0)"/><path style="display:inline;opacity:1;fill:#fff;fill-opacity:1;fill-rule:evenodd;stroke:#2e2e2e;stroke-width:0;stroke-linecap:round;stroke-linejoin:round;stroke-miterlimit:4.80000019;stroke-dasharray:none;stroke-opacity:1" transform="rotate(45 68.422 -35.825)" d="M113.66-24.786h125.349v125.349H113.66z"/></g><path style="display:inline;opacity:.75;fill:#5e35b1;fill-opacity:1;stroke-width:.26458332" d="M63.5 244.083H22.511l10.247-17.748 10.247-17.75 10.248 17.75z" transform="matrix(1.0328 0 0 1.0435 77.292 -143.498)"/><path transform="matrix(1.0328 0 0 1.0435 93.167 -143.498)" d="M63.5 244.083H22.511l10.247-17.748 10.247-17.75 10.248 17.75z" style="display:inline;opacity:.75;fill:#5e35b1;fill-opacity:1;stroke-width:.26458332"/><path style="display:inline;opacity:.75;fill:#2962ff;fill-opacity:1;stroke-width:.26458338" d="M26.458 74.161v10.584h31.75V74.16z"/><path style="display:inline;opacity:.75;fill:#2962ff;fill-opacity:1;stroke-width:.26458362" d="M37.042 79.453h10.583v31.75H37.042z"/><path style="display:inline;opacity:.75;fill:#3f51b5;fill-opacity:1;stroke-width:.26569617" d="M68.947 79.453a18.599 18.599 0 0 0 0 26.302 18.599 18.599 0 0 0 26.303 0z"/><path d="M95.25 79.453a18.599 18.599 0 0 0-26.303 0 18.599 18.599 0 0 0 0 26.302z" style="display:inline;opacity:.75;fill:#3f50b5;fill-opacity:1;stroke-width:.26569614"/></svg>